<svg width="126" height="34" viewBox="0 0 126 34" fill="none" xmlns="http://www.w3.org/2000/svg">
<path d="M7.52 26.8H0V0H7.52V26.8ZM23.36 17.48H2.04V10.76H23.36V17.48ZM23.96 6.76H2.04V0H23.96V6.76Z" fill="#fff"/>
<path d="M33.4575 26.8H25.9375V6.64H32.9775V12.4L33.4575 12.6V26.8ZM33.4575 14.76H32.0575V11.92H33.3775C33.5642 10.8 33.9242 9.81333 34.4575 8.96C34.9908 8.10667 35.7108 7.44 36.6175 6.96C37.5508 6.48 38.6842 6.24 40.0175 6.24C41.5108 6.24 42.7108 6.54667 43.6175 7.16C44.5242 7.74667 45.1775 8.56 45.5775 9.6C46.0042 10.64 46.2175 11.84 46.2175 13.2V17.2H38.6975V14.84C38.6975 13.9867 38.5108 13.4 38.1375 13.08C37.7642 12.7333 37.0842 12.56 36.0975 12.56C35.0842 12.56 34.3908 12.7333 34.0175 13.08C33.6442 13.4 33.4575 13.96 33.4575 14.76Z" fill="#fff"/>
<path d="M56.0925 27.2C54.2258 27.2 52.6792 26.8667 51.4525 26.2C50.2258 25.5333 49.3058 24.6267 48.6925 23.48C48.1058 22.3333 47.8125 21.0267 47.8125 19.56V6.64H55.3325V16.8C55.3325 18.1867 55.6525 19.1467 56.2925 19.68C56.9592 20.2133 58.1458 20.48 59.8525 20.48C61.5858 20.48 62.7325 20.24 63.2925 19.76C63.8792 19.2533 64.1725 18.3467 64.1725 17.04H64.9325L65.5725 20.68H64.2525C64.1192 21.8 63.7592 22.8533 63.1725 23.84C62.5858 24.8267 61.7192 25.64 60.5725 26.28C59.4258 26.8933 57.9325 27.2 56.0925 27.2ZM71.6925 26.8H64.6525V20.6L64.1725 20.4V6.64H71.6925V26.8Z" fill="#fff"/>
<path d="M81.4653 26.8H73.9453V6.64H81.4653V26.8ZM81.4653 4.8H73.9453V0H81.4653V4.8Z" fill="#fff"/>
<path d="M98.9472 26.8H93.6672C91.1605 26.8 89.1872 26.1733 87.7472 24.92C86.3339 23.6667 85.6272 21.7333 85.6272 19.12V3.16H93.1472V18.04C93.1472 18.84 93.2939 19.3733 93.5872 19.64C93.9072 19.9067 94.4939 20.04 95.3472 20.04H98.9472V26.8ZM98.9472 12.8H82.6672V6.64H98.9472V12.8Z" fill="#fff"/>
<path d="M105.182 33.6H101.542V26.8H107.382C107.996 26.8 108.462 26.72 108.782 26.56C109.102 26.4 109.342 26.12 109.502 25.72L110.062 24.36L109.342 27.72L99.1422 6.64H107.702L111.182 14.56L112.622 19.2H113.142L114.462 14.48L117.462 6.64H125.862L116.302 27.6C115.582 29.1733 114.729 30.4 113.742 31.28C112.782 32.16 111.609 32.76 110.222 33.08C108.836 33.4267 107.156 33.6 105.182 33.6Z" fill="#fff"/>
</svg>
