<svg width="100" height="100" viewBox="0 0 100 100" fill="none" xmlns="http://www.w3.org/2000/svg">
<path fill-rule="evenodd" clip-rule="evenodd" d="M25 50C25 50.8288 25.3293 51.6236 25.9153 52.2097C26.5014 52.7957 27.2962 53.125 28.125 53.125H64.3313L50.9125 66.5375C50.622 66.828 50.3915 67.173 50.2343 67.5526C50.077 67.9322 49.9961 68.3391 49.9961 68.75C49.9961 69.1609 50.077 69.5678 50.2343 69.9474C50.3915 70.327 50.622 70.6719 50.9125 70.9625C51.2031 71.253 51.548 71.4835 51.9276 71.6408C52.3073 71.798 52.7141 71.8789 53.125 71.8789C53.5359 71.8789 53.9428 71.798 54.3224 71.6408C54.702 71.4835 55.047 71.253 55.3375 70.9625L74.0875 52.2125C74.3785 51.9222 74.6094 51.5773 74.767 51.1977C74.9245 50.818 75.0056 50.411 75.0056 50C75.0056 49.5889 74.9245 49.1819 74.767 48.8023C74.6094 48.4226 74.3785 48.0778 74.0875 47.7875L55.3375 29.0375C54.7507 28.4507 53.9549 28.121 53.125 28.121C52.2952 28.121 51.4993 28.4507 50.9125 29.0375C50.3257 29.6243 49.9961 30.4201 49.9961 31.25C49.9961 32.0798 50.3257 32.8757 50.9125 33.4625L64.3313 46.875H28.125C27.2962 46.875 26.5014 47.2042 25.9153 47.7903C25.3293 48.3763 25 49.1712 25 50Z" fill="#000"/>
</svg>
